<svg width="32" height="32" viewBox="0 0 32 32" xmlns="http://www.w3.org/2000/svg">
    <defs>
        <linearGradient id="grad" x1="0%" y1="0%" x2="100%" y2="100%">
            <stop offset="0%" style="stop-color:#8B5CF6;stop-opacity:1" />
            <stop offset="100%" style="stop-color:#3B82F6;stop-opacity:1" />
        </linearGradient>
    </defs>

    <!-- Background circle -->
    <circle cx="16" cy="16" r="15" fill="url(#grad)" stroke="#ffffff" stroke-width="1" opacity="0.95" />

    <!-- Main star in center -->
    <g fill="#ffffff" opacity="0.9">
        <!-- Center star -->
        <polygon points="16,6 18,12 24,12 19.5,16 21.5,22 16,19 10.5,22 12.5,16 8,12 14,12" />

        <!-- Small sparkle top-left -->
        <circle cx="8" cy="8" r="1.5" />
        <polygon points="8,5 8.5,7 10,7 9,8 9.5,10 8,9 6.5,10 7,8 6,7 7.5,7" opacity="0.8" />

        <!-- Small sparkle top-right -->
        <circle cx="24" cy="8" r="1" />
        <polygon points="24,6 24.5,7.5 26,7.5 25,8.5 25.5,10 24,9 22.5,10 23,8.5 22,7.5 23.5,7.5" opacity="0.8" />

        <!-- Small sparkle bottom-left -->
        <circle cx="8" cy="24" r="1" />
        <polygon points="8,22 8.5,23.5 10,23.5 9,24.5 9.5,26 8,25 6.5,26 7,24.5 6,23.5 7.5,23.5" opacity="0.8" />

        <!-- Small sparkle bottom-right -->
        <circle cx="24" cy="24" r="1.5" />
        <polygon points="24,21 24.5,23 26,23 25,24 25.5,26 24,25 22.5,26 23,24 22,23 23.5,23" opacity="0.8" />
    </g>
</svg>